<svg width="88" height="88" viewBox="0 0 88 88" fill="none" xmlns="http://www.w3.org/2000/svg">
<path d="M38.5 66H35.75V79.75H38.5V66Z" fill="#E2E8F0"/>
<path d="M46.75 66H44V79.75H46.75V66Z" fill="#E2E8F0"/>
<path d="M64.625 24.75H23.375V17.7224C21.6205 15.928 20.625 13.5107 20.625 11C20.625 5.69387 24.9439 1.375 30.25 1.375C32.626 1.375 34.892 2.25087 36.6451 3.81012C38.7709 2.23162 41.3366 1.375 44 1.375C46.6634 1.375 49.2291 2.23162 51.3549 3.81012C53.108 2.25087 55.374 1.375 57.75 1.375C63.0561 1.375 67.375 5.69387 67.375 11C67.375 13.5107 66.3795 15.928 64.625 17.7224V24.75Z" fill="#E2E8F0"/>
<path d="M66.2943 55.9405L56.375 52.6336V45.7944C57.3512 44.4056 58.0938 42.845 58.5599 41.1689C61.9658 40.7619 64.625 37.8881 64.625 34.375V24.75H61.875V28.9107C61.072 28.303 60.1466 27.8479 59.125 27.6402V24.75H56.375V37.125C56.375 43.9478 50.8228 49.5 44 49.5C37.1772 49.5 31.625 43.9478 31.625 37.125V24.75H28.875V27.6389C27.8534 27.8479 26.928 28.3016 26.125 28.9094V24.75H23.375V34.375C23.375 37.8881 26.0342 40.7619 29.4401 41.1675C29.9062 42.845 30.6488 44.4043 31.625 45.7944V52.6336L21.7058 55.9391C17.7691 57.2522 15.125 60.9221 15.125 65.0719V86.625H72.875V65.0719C72.875 60.9221 70.2309 57.2522 66.2943 55.9405ZM61.875 34.375C61.875 36.1859 60.6939 37.7121 59.0672 38.2649C59.0961 37.8868 59.125 37.51 59.125 37.125V30.503C60.7214 31.0722 61.875 32.5848 61.875 34.375ZM53.625 48.7836V52.7464L45.375 56.5538V52.1813C48.4921 51.898 51.3411 50.6729 53.625 48.7836ZM42.625 52.1799V56.5524L34.375 52.745V48.7823C36.6589 50.6729 39.5079 51.898 42.625 52.1799ZM26.125 34.375C26.125 32.5848 27.2786 31.0722 28.875 30.503V37.125C28.875 37.51 28.9039 37.8868 28.9327 38.2649C27.3061 37.7121 26.125 36.1859 26.125 34.375ZM17.875 65.0719C17.875 62.1074 19.7643 59.4866 22.5761 58.5489L32.9189 55.1018L49.5 62.755V83.875H27.5949L28.8722 64.7158L26.1291 64.5329L24.8394 83.875H17.875V65.0719ZM70.125 83.875H63.1606L61.8709 64.5342L59.1277 64.7171L60.4051 83.875H52.25V60.995L47.2808 58.7015L55.0811 55.1018L65.4239 58.5489C68.2358 59.4866 70.125 62.1074 70.125 65.0719V83.875Z" fill="#94A3B8"/>
<path d="M37.125 34.375C37.8844 34.375 38.5 33.7594 38.5 33C38.5 32.2406 37.8844 31.625 37.125 31.625C36.3656 31.625 35.75 32.2406 35.75 33C35.75 33.7594 36.3656 34.375 37.125 34.375Z" fill="#94A3B8"/>
<path d="M50.875 34.375C51.6344 34.375 52.25 33.7594 52.25 33C52.25 32.2406 51.6344 31.625 50.875 31.625C50.1156 31.625 49.5 32.2406 49.5 33C49.5 33.7594 50.1156 34.375 50.875 34.375Z" fill="#94A3B8"/>
<path d="M44 45.375C47.0332 45.375 49.5 42.9083 49.5 39.875H46.75C46.75 41.3916 45.5166 42.625 44 42.625C42.4834 42.625 41.25 41.3916 41.25 39.875H38.5C38.5 42.9083 40.9667 45.375 44 45.375Z" fill="#94A3B8"/>
<path d="M46.75 64.625H44V67.375H46.75V64.625Z" fill="#94A3B8"/>
<path d="M38.5 64.625H35.75V67.375H38.5V64.625Z" fill="#94A3B8"/>
<path d="M46.75 71.5H44V74.25H46.75V71.5Z" fill="#94A3B8"/>
<path d="M38.5 71.5H35.75V74.25H38.5V71.5Z" fill="#94A3B8"/>
<path d="M46.75 78.375H44V81.125H46.75V78.375Z" fill="#94A3B8"/>
<path d="M38.5 78.375H35.75V81.125H38.5V78.375Z" fill="#94A3B8"/>
<path d="M45.375 16.5H42.625V24.75H45.375V16.5Z" fill="#94A3B8"/>
<path d="M34.375 16.5H31.625V24.75H34.375V16.5Z" fill="#94A3B8"/>
<path d="M56.375 16.5H53.625V24.75H56.375V16.5Z" fill="#94A3B8"/>
</svg>
