<svg width="86" height="86" viewBox="0 0 86 86" fill="none" xmlns="http://www.w3.org/2000/svg">
<path d="M34.9375 45.6875H34.9563C32.3709 43.7485 30.4991 40.9091 29.8326 37.625H29.5625C26.5942 37.625 24.1875 35.2183 24.1875 32.25C24.1875 29.2817 26.5942 26.875 29.5625 26.875V22.8438H56.4375V26.875C59.4058 26.875 61.8125 29.2817 61.8125 32.25C61.8125 35.2183 59.4058 37.625 56.4375 37.625H56.1674C55.5009 40.9091 53.6291 43.7485 51.0437 45.6875H51.0625V51.0625L63.1562 55.0938V21.5C63.1562 10.3858 54.1142 1.34375 43 1.34375C31.8858 1.34375 22.8438 10.3858 22.8438 21.5V55.0938L34.9375 51.0625V45.6875Z" fill="#E2E8F0"/>
<path d="M66.1313 54.6705L55.947 51.2748C55.2993 49.6475 54.0443 48.3092 52.4062 47.5956V46.3312C54.7054 44.4298 56.4079 41.8417 57.229 38.8895C60.5574 38.4917 63.1562 35.6833 63.1562 32.25C63.1562 29.0062 60.8437 26.2918 57.7812 25.667V18.8125H55.0938V21.5H51.0625V18.8125H48.375V21.5H44.3438V18.8125H41.6562V21.5H37.625V18.8125H34.9375V21.5H30.9062V18.8125H28.2188V25.667C25.1563 26.2918 22.8438 29.0048 22.8438 32.25C22.8438 35.6833 25.4426 38.4917 28.771 38.8881C29.5921 41.8403 31.2946 44.4284 33.5938 46.3298V47.5943C31.9557 48.3092 30.7007 49.6462 30.053 51.2735L19.87 54.6691C16.0215 55.9511 13.4375 59.5375 13.4375 63.5916V84.6562H72.5625V63.5916C72.5625 59.5375 69.9785 55.9511 66.1313 54.6705ZM69.875 63.5916V71.2188H63.1562V63.1562H60.4688V70.6006C59.3575 69.6036 57.9721 68.9115 56.4375 68.6522V54.27L65.2821 57.2182C68.0287 58.1347 69.875 60.6958 69.875 63.5916ZM44.3438 59.6813L51.4253 52.5998L53.7178 53.3643C53.7298 53.492 53.75 53.6183 53.75 53.75V68.6522C49.9432 69.2945 47.0312 72.6055 47.0312 76.5938V81.9688H44.3438V59.6813ZM49.7188 76.5938C49.7188 73.6294 52.1294 71.2188 55.0938 71.2188C58.0581 71.2188 60.4688 73.6294 60.4688 76.5938V81.9688H49.7188V76.5938ZM55.0938 30.9062H48.375C47.6346 30.9062 47.0312 30.3042 47.0312 29.5625C47.0312 28.8208 47.6346 28.2188 48.375 28.2188H55.0938V30.9062ZM60.4688 32.25C60.4688 34.0197 59.3145 35.5113 57.7248 36.0515C57.753 35.6819 57.7812 35.3137 57.7812 34.9375V28.466C59.3413 29.0223 60.4688 30.5004 60.4688 32.25ZM55.0938 24.1875V25.5312H48.375C46.6254 25.5312 45.1473 26.6587 44.591 28.2188H41.4077C40.8513 26.6587 39.3732 25.5312 37.6237 25.5312H30.9049V24.1875H55.0938ZM30.9062 28.2188H37.625C38.3654 28.2188 38.9688 28.8208 38.9688 29.5625C38.9688 30.3042 38.3654 30.9062 37.625 30.9062H30.9062V28.2188ZM25.5312 32.25C25.5312 30.5004 26.6587 29.0223 28.2188 28.466V34.9375C28.2188 35.3137 28.247 35.6819 28.2752 36.0515C26.6855 35.5113 25.5312 34.0197 25.5312 32.25ZM30.9062 34.9375V33.5938H37.625C39.3746 33.5938 40.8527 32.4663 41.409 30.9062H44.5923C45.1487 32.4663 46.6268 33.5938 48.3763 33.5938H55.0951V34.9375C55.0951 41.6065 49.669 47.0312 43.0013 47.0312C36.3337 47.0312 30.9062 41.6065 30.9062 34.9375ZM43 49.7188C45.4201 49.7188 47.7004 49.1221 49.7188 48.0874V50.5062L43 57.2249L36.2812 50.5062V48.0874C38.2996 49.1221 40.5799 49.7188 43 49.7188ZM20.7193 57.2182L29.5625 54.27V69.875H32.25V53.75C32.25 53.6183 32.2702 53.492 32.2822 53.3643L34.5747 52.5998L41.6562 59.6813V81.9688H25.5312V63.1562H22.8438V71.2188H16.125V63.5916C16.125 60.6958 17.9713 58.1347 20.7193 57.2182ZM16.125 73.9062H22.8438V81.9688H16.125V73.9062ZM63.1562 81.9688V76.5938V73.9062H69.875V81.9688H63.1562Z" fill="#94A3B8"/>
<path d="M43 43C45.9643 43 48.375 40.5893 48.375 37.625H45.6875C45.6875 39.1072 44.4822 40.3125 43 40.3125C41.5178 40.3125 40.3125 39.1072 40.3125 37.625H37.625C37.625 40.5893 40.0357 43 43 43Z" fill="#94A3B8"/>
<path d="M30.9062 84.6562C26.4598 84.6562 22.8438 81.0402 22.8438 76.5938C22.8438 72.1473 26.4598 68.5312 30.9062 68.5312C35.3527 68.5312 38.9688 72.1473 38.9688 76.5938C38.9688 81.0402 35.3527 84.6562 30.9062 84.6562Z" fill="#E2E8F0"/>
<path d="M32.25 75.25H29.5625V77.9375H32.25V75.25Z" fill="#94A3B8"/>
</svg>
