<svg width="34" height="34" viewBox="0 0 34 34" fill="none" xmlns="http://www.w3.org/2000/svg">
<path fill-rule="evenodd" clip-rule="evenodd" d="M31.1668 8.86336V24.4375C31.1668 26.1978 29.7397 27.625 27.9793 27.625H6.021C4.26059 27.625 2.8335 26.1978 2.8335 24.4375V8.83147C2.8335 8.81694 2.83379 8.80246 2.83436 8.78806C2.85873 7.45127 3.95 6.375 5.29272 6.375H28.7081C30.0659 6.375 31.1668 7.47571 31.167 8.83361C31.167 8.84353 31.167 8.85344 31.1668 8.86336ZM4.9585 11.5983V24.4375C4.9585 25.0243 5.4342 25.5 6.021 25.5H27.9793C28.5661 25.5 29.0418 25.0243 29.0418 24.4375V11.5989L18.8238 18.7242C17.7285 19.4881 16.2728 19.4881 15.1775 18.7242L4.9585 11.5983ZM29.0418 8.82385V8.83147V8.84476C29.0384 8.94983 28.9857 9.04744 28.899 9.10782L17.6083 16.9812C17.2433 17.2357 16.7581 17.2357 16.3928 16.9812L5.10181 9.10754C5.01233 9.04515 4.95899 8.94296 4.95895 8.83388C4.95889 8.6495 5.10834 8.5 5.29272 8.5H28.7081C28.8891 8.5 29.0366 8.64409 29.0418 8.82385Z" fill="white"/>
</svg>
