<svg width="87" height="87" viewBox="0 0 87 87" fill="none" xmlns="http://www.w3.org/2000/svg">
<path d="M43.5 58.4531L36.7031 61.1719V84.2812H39.4219H47.5781H50.2969V61.1719L43.5 58.4531Z" fill="#E2E8F0"/>
<path d="M65.2119 54.7421L53.0156 50.6763V46.8686C53.1638 46.7463 53.2984 46.6104 53.4411 46.4826C55.0112 47.1881 56.7186 47.5782 58.4531 47.5782C65.1997 47.5782 70.6875 42.0891 70.6875 35.3439C70.6875 30.6527 68.0367 26.4794 63.8906 24.4199V21.7501C63.8906 19.7654 63.6065 17.8052 63.0451 15.9238L60.4405 16.7C60.9258 18.3299 61.1719 20.0278 61.1719 21.7501V27.223C60.378 26.6221 59.4631 26.1722 58.4531 25.9669V24.4689H55.7344C51.644 24.4689 47.589 23.1163 44.3156 20.6626L43.5 20.0509L42.6844 20.6626C39.411 23.1163 35.356 24.4689 31.2656 24.4689H28.5469V25.9655C27.5369 26.1722 26.622 26.6208 25.8281 27.2216V21.7501C25.8281 20.0278 26.0742 18.3299 26.5595 16.7014L23.9549 15.9252C23.3935 17.8052 23.1094 19.7654 23.1094 21.7501V32.6251C23.1094 36.0983 25.7384 38.9394 29.1056 39.3404C29.9362 42.327 31.6585 44.9451 33.9844 46.8686V50.6763L21.7881 54.7421C16.8875 56.3748 13.5938 60.9436 13.5938 66.1106C13.5938 68.4841 14.2897 70.7828 15.6056 72.7593L16.3125 73.8183V85.6407H70.6875V73.8183L71.3944 72.7593C72.7116 70.7828 73.4062 68.4841 73.4062 66.112C73.4062 60.9436 70.1125 56.3748 65.2119 54.7421ZM53.0156 55.7345C53.0156 57.9829 51.1859 59.8126 48.9375 59.8126C47.3606 59.8126 45.9632 58.9059 45.2876 57.5357L51.8574 53.1558L52.1524 53.255C52.7016 53.9659 53.0156 54.8251 53.0156 55.7345ZM34.8435 53.2563L35.1426 53.1571L41.7124 57.537C41.0368 58.9059 39.6394 59.8126 38.0625 59.8126C35.8141 59.8126 33.9844 57.9829 33.9844 55.7345C33.9844 54.8319 34.297 53.9659 34.8435 53.2563ZM61.1719 32.6251C61.1719 34.4154 60.0042 35.9243 58.396 36.4708C58.4246 36.097 58.4531 35.7245 58.4531 35.3439V28.7971C60.0314 29.3599 61.1719 30.8552 61.1719 32.6251ZM57.8944 39.3404C61.2616 38.9394 63.8906 36.0983 63.8906 32.6251V27.5601C66.4082 29.3137 67.9688 32.1752 67.9688 35.3439C67.9688 40.591 63.699 44.8595 58.4531 44.8595C57.4146 44.8595 56.3896 44.6719 55.4136 44.3429C56.5337 42.8639 57.3847 41.1756 57.8944 39.3404ZM25.8281 32.6251C25.8281 30.8552 26.9686 29.3599 28.5469 28.7971V35.3439C28.5469 35.7245 28.5754 36.097 28.604 36.4708C26.9958 35.9243 25.8281 34.4154 25.8281 32.6251ZM31.2656 35.3439V27.1876C35.6061 27.1876 39.9112 25.8554 43.5 23.4194C47.0887 25.8554 51.3939 27.1876 55.7344 27.1876V35.3439C55.7344 42.0891 50.2466 47.5782 43.5 47.5782C36.7534 47.5782 31.2656 42.0891 31.2656 35.3439ZM43.5 50.297C45.9482 50.297 48.2551 49.6934 50.2969 48.6467V50.9291L43.5 55.4599L36.7031 50.9291V48.6467C38.7449 49.6934 41.0518 50.297 43.5 50.297ZM19.0312 74.7657H24.4688V74.9982C24.4688 75.8478 24.5775 76.6784 24.7705 77.4845H19.0312V74.7657ZM19.0312 80.2032H25.8281V80.191C26.2087 80.8693 26.6573 81.5137 27.1875 82.1036V82.922H19.0312V80.2032ZM59.8125 82.922V82.1036C60.3427 81.5137 60.7912 80.8693 61.1719 80.191V80.2032H67.9688V82.922H59.8125ZM67.9688 74.7657V77.4845H62.2295C62.4225 76.6784 62.5312 75.8478 62.5312 74.9982V74.7657H67.9688ZM69.131 71.2518L68.6009 72.047H62.2295C61.8217 70.3396 61.006 68.7559 59.8125 67.4278V63.8907H57.0938V68.5316L57.492 68.9299C58.9887 70.4266 59.8125 72.4167 59.8125 74.5333V74.7657V74.9982C59.8125 77.1147 58.9887 79.1049 57.492 80.6015L57.0938 80.9998V82.922H29.9062V80.9998L29.508 80.6015C28.0113 79.1049 27.1875 77.1147 27.1875 74.9982V74.7657V74.5333C27.1875 72.4167 28.0113 70.4266 29.508 68.9299L29.9062 68.5316V63.8907H27.1875V67.4278C25.994 68.7559 25.177 70.3396 24.7705 72.047H18.3991L17.869 71.2518C16.8508 69.7238 16.3125 67.9458 16.3125 66.1106C16.3125 62.1154 18.8586 58.5837 22.6485 57.3209L31.407 54.4009C31.3186 54.8387 31.2656 55.2832 31.2656 55.7345C31.2656 59.4823 34.3147 62.5314 38.0625 62.5314C40.2606 62.5314 42.2453 61.4656 43.5 59.7827C44.7547 61.4656 46.7394 62.5314 48.9375 62.5314C52.6853 62.5314 55.7344 59.4823 55.7344 55.7345C55.7344 55.2832 55.6882 54.8387 55.6012 54.405L64.3515 57.3222C68.1414 58.5837 70.6875 62.1154 70.6875 66.1106C70.6875 67.9458 70.1492 69.7238 69.131 71.2518Z" fill="#94A3B8"/>
<path d="M36.7031 32.625C37.4539 32.625 38.0625 32.0164 38.0625 31.2656C38.0625 30.5149 37.4539 29.9062 36.7031 29.9062C35.9524 29.9062 35.3438 30.5149 35.3438 31.2656C35.3438 32.0164 35.9524 32.625 36.7031 32.625Z" fill="#94A3B8"/>
<path d="M55.9057 21.9947L55.1281 21.6073C55.0764 21.5815 49.8727 19.0313 43.5 19.0313C37.1272 19.0313 31.9236 21.5815 31.8719 21.6073L31.0957 21.9934L24.5653 16.772C23.6409 16.0325 23.1094 14.9273 23.1094 13.7406C23.1094 12.3092 23.891 11.0001 25.1512 10.3218L40.2987 2.16416C42.2657 1.11064 44.737 1.11064 46.7013 2.16416L61.8516 10.3218C63.109 11.0015 63.8906 12.3105 63.8906 13.7406C63.8906 14.9273 63.3591 16.0325 62.4334 16.7706L55.9057 21.9947Z" fill="#E2E8F0"/>
<path d="M50.2969 32.625C51.0476 32.625 51.6562 32.0164 51.6562 31.2656C51.6562 30.5149 51.0476 29.9062 50.2969 29.9062C49.5461 29.9062 48.9375 30.5149 48.9375 31.2656C48.9375 32.0164 49.5461 32.625 50.2969 32.625Z" fill="#94A3B8"/>
<path d="M43.5 43.5C46.4988 43.5 48.9375 41.0613 48.9375 38.0625H46.2188C46.2188 39.5619 44.9994 40.7812 43.5 40.7812C42.0006 40.7812 40.7812 39.5619 40.7812 38.0625H38.0625C38.0625 41.0613 40.5012 43.5 43.5 43.5Z" fill="#94A3B8"/>
<path d="M44.9082 64.3013H42.1895V66.9779H44.9082V64.3013Z" fill="#94A3B8"/>
<path d="M44.8594 70.7295H42.1406V73.4061H44.8594V70.7295Z" fill="#94A3B8"/>
<path d="M42.1406 14.9531H44.8594V12.2344H47.5781V9.51562H44.8594V6.79688H42.1406V9.51562H39.4219V12.2344H42.1406V14.9531Z" fill="#94A3B8"/>
<path d="M44.8105 77.1597H42.0918V79.8363H44.8105V77.1597Z" fill="#94A3B8"/>
</svg>
