<svg width="100" height="100" viewBox="0 0 100 100" fill="none" xmlns="http://www.w3.org/2000/svg">
<g clip-path="url(#clip0_85_119)">
<path d="M6.73975 51.728L12.3794 57.3677L18.1153 51.6318C21.0935 48.6535 25.1328 46.9804 29.3447 46.9804H54.9852C60.1398 46.9804 64.3183 42.8019 64.3183 37.6473V13.2862C64.3183 8.13161 60.1398 3.95312 54.9852 3.95312H11.3252C6.17063 3.95312 1.99194 8.13161 1.99194 13.2862V40.2661C1.99194 44.5651 3.69971 48.688 6.73975 51.728Z" fill="#94A3B8"/>
<path d="M12.3795 59.3594C11.8695 59.3594 11.36 59.1647 10.9709 58.7759L5.33127 53.1362C1.89342 49.6984 0 45.1277 0 40.2659V13.286C0 7.04142 5.08047 1.96094 11.3253 1.96094H54.9852C61.23 1.96094 66.3105 7.04142 66.3105 13.2862V37.6472C66.3105 43.8918 61.23 48.9723 54.9852 48.9723H29.3448C25.635 48.9723 22.1472 50.4171 19.5239 53.0404L13.788 58.7763C13.399 59.1649 12.8892 59.3594 12.3795 59.3594ZM11.3253 5.945C7.27728 5.945 3.98406 9.23823 3.98406 13.286V40.2657C3.98406 44.0633 5.46294 47.6337 8.1484 50.3191L12.3793 54.55L16.7066 50.2227C20.0825 46.847 24.5709 44.9878 29.3446 44.9878H54.985C59.0328 44.9878 62.3262 41.6948 62.3262 37.6468V13.286C62.3262 9.23823 59.033 5.9448 54.985 5.9448L11.3253 5.945Z" fill="#1E293B"/>
<path d="M37.9434 20.8918H14.2113C13.1113 20.8918 12.2192 19.9997 12.2192 18.8997C12.2192 17.7997 13.1113 16.9077 14.2113 16.9077H37.9434C39.0434 16.9077 39.9354 17.7997 39.9354 18.8997C39.9354 19.9997 39.0434 20.8918 37.9434 20.8918Z" fill="#1E293B"/>
<path d="M52.5641 33.1818H14.2113C13.1113 33.1818 12.2192 32.2898 12.2192 31.1898C12.2192 30.0898 13.1113 29.1978 14.2113 29.1978H52.5641C53.6641 29.1978 54.5561 30.0898 54.5561 31.1898C54.5561 32.2898 53.6642 33.1818 52.5641 33.1818Z" fill="#1E293B"/>
<path d="M52.5641 20.8918H46.2074C45.1074 20.8918 44.2153 19.9997 44.2153 18.8997C44.2153 17.7997 45.1074 16.9077 46.2074 16.9077H52.5641C53.6641 16.9077 54.5562 17.7997 54.5562 18.8997C54.5562 19.9997 53.6643 20.8918 52.5641 20.8918Z" fill="#1E293B"/>
<path d="M94.3905 91.7495L90.0933 96.0467L85.7226 91.676C83.4533 89.4067 80.3754 88.1318 77.166 88.1318H57.6284C53.7007 88.1318 50.5166 84.9477 50.5166 81.02V62.4575C50.5166 58.5298 53.7007 55.3457 57.6284 55.3457H90.8965C94.8242 55.3457 98.0082 58.5298 98.0082 62.4575V83.0156C98.008 86.2915 96.7069 89.4332 94.3905 91.7495Z" fill="#F0EFE4"/>
<path d="M90.0932 98.0388C89.5833 98.0388 89.0737 97.8442 88.6847 97.4554L84.3141 93.0849C82.405 91.1755 79.8663 90.1241 77.1659 90.1241H57.6285C52.6088 90.1241 48.5249 86.04 48.5249 81.0203V62.4576C48.5249 57.4379 52.6088 53.354 57.6285 53.354H90.8964C95.9161 53.354 100 57.4379 100 62.4576V83.0157C100 86.847 98.5082 90.449 95.799 93.1582L91.5018 97.4554C91.1128 97.8444 90.603 98.0388 90.0932 98.0388ZM57.6283 57.3381C54.8054 57.3381 52.5088 59.6347 52.5088 62.4576V81.0203C52.5088 83.8434 54.8054 86.14 57.6283 86.14H77.1657C80.9301 86.14 84.4693 87.6058 87.1311 90.2677L90.093 93.2297L92.9817 90.341C94.9383 88.3845 96.0157 85.7831 96.0157 83.0159V62.4576C96.0157 59.6347 93.7191 57.3381 90.8962 57.3381H57.6283Z" fill="#1E293B"/>
<path d="M88.6974 68.7272H70.6141C69.5141 68.7272 68.6221 67.8352 68.6221 66.7352C68.6221 65.6352 69.5141 64.7432 70.6141 64.7432H88.6974C89.7974 64.7432 90.6894 65.6352 90.6894 66.7352C90.6894 67.8352 89.7974 68.7272 88.6974 68.7272Z" fill="#1E293B"/>
<path d="M88.6971 78.092H59.473C58.373 78.092 57.481 77.1999 57.481 76.0999C57.481 74.9999 58.373 74.1079 59.473 74.1079H88.6971C89.7971 74.1079 90.6892 74.9999 90.6892 76.0999C90.6892 77.1999 89.7971 78.092 88.6971 78.092Z" fill="#1E293B"/>
<path d="M64.3168 68.7272H59.473C58.373 68.7272 57.481 67.8352 57.481 66.7352C57.481 65.6352 58.373 64.7432 59.473 64.7432H64.3168C65.4168 64.7432 66.3089 65.6352 66.3089 66.7352C66.3089 67.8352 65.417 68.7272 64.3168 68.7272Z" fill="#1E293B"/>
</g>
<defs>
<clipPath id="clip0_85_119">
<rect width="100" height="100" fill="white"/>
</clipPath>
</defs>
</svg>
