<svg width="161" height="66" viewBox="0 0 161 66" fill="none" xmlns="http://www.w3.org/2000/svg">
<circle cx="4.5" cy="4.5" r="4.5" fill="#CBD5E1"/>
<circle cx="23.5" cy="4.5" r="4.5" fill="#CBD5E1"/>
<circle cx="42.5" cy="4.5" r="4.5" fill="#CBD5E1"/>
<circle cx="61.5" cy="4.5" r="4.5" fill="#CBD5E1"/>
<circle cx="80.5" cy="4.5" r="4.5" fill="#CBD5E1"/>
<circle cx="99.5" cy="4.5" r="4.5" fill="#CBD5E1"/>
<circle cx="118.5" cy="4.5" r="4.5" fill="#CBD5E1"/>
<circle cx="137.5" cy="4.5" r="4.5" fill="#CBD5E1"/>
<circle cx="156.5" cy="4.5" r="4.5" fill="#CBD5E1"/>
<circle cx="4.5" cy="23.5" r="4.5" fill="#CBD5E1"/>
<circle cx="23.5" cy="23.5" r="4.5" fill="#CBD5E1"/>
<circle cx="42.5" cy="23.5" r="4.5" fill="#CBD5E1"/>
<circle cx="61.5" cy="23.5" r="4.5" fill="#CBD5E1"/>
<circle cx="80.5" cy="23.5" r="4.5" fill="#CBD5E1"/>
<circle cx="99.5" cy="23.5" r="4.5" fill="#CBD5E1"/>
<circle cx="118.5" cy="23.5" r="4.5" fill="#CBD5E1"/>
<circle cx="137.5" cy="23.5" r="4.5" fill="#CBD5E1"/>
<circle cx="156.5" cy="23.5" r="4.5" fill="#CBD5E1"/>
<circle cx="4.5" cy="42.5" r="4.5" fill="#CBD5E1"/>
<circle cx="23.5" cy="42.5" r="4.5" fill="#CBD5E1"/>
<circle cx="42.5" cy="42.5" r="4.5" fill="#CBD5E1"/>
<circle cx="61.5" cy="42.5" r="4.5" fill="#CBD5E1"/>
<circle cx="80.5" cy="42.5" r="4.5" fill="#CBD5E1"/>
<circle cx="99.5" cy="42.5" r="4.5" fill="#CBD5E1"/>
<circle cx="118.5" cy="42.5" r="4.5" fill="#CBD5E1"/>
<circle cx="137.5" cy="42.5" r="4.5" fill="#CBD5E1"/>
<circle cx="156.5" cy="42.5" r="4.5" fill="#CBD5E1"/>
<circle cx="4.5" cy="61.5" r="4.5" fill="#CBD5E1"/>
<circle cx="23.5" cy="61.5" r="4.5" fill="#CBD5E1"/>
<circle cx="42.5" cy="61.5" r="4.5" fill="#CBD5E1"/>
<circle cx="61.5" cy="61.5" r="4.5" fill="#CBD5E1"/>
<circle cx="80.5" cy="61.5" r="4.5" fill="#CBD5E1"/>
<circle cx="99.5" cy="61.5" r="4.5" fill="#CBD5E1"/>
<circle cx="118.5" cy="61.5" r="4.5" fill="#CBD5E1"/>
<circle cx="137.5" cy="61.5" r="4.5" fill="#CBD5E1"/>
<circle cx="156.5" cy="61.5" r="4.5" fill="#CBD5E1"/>
</svg>
