<svg xmlns="http://www.w3.org/2000/svg" viewBox="0 0 130.81 97.89"><defs><style>.cls-1{fill:#003a70;}.cls-2{fill:#db0032;}</style></defs><title>Recurso 1</title><g id="Capa_2" data-name="Capa 2"><g id="Capa_1-2" data-name="Capa 1"><path class="cls-1" d="M15.13,97.58H10.77l-.75-5H4.72l-.75,5H0L4.4,70.07h6.33ZM5.27,88.86H9.43L7.39,75H7.31Z"/><path class="cls-1" d="M30.81,69.76c4.2,0,6.36,2.51,6.36,6.91v.87H33.09V76.4c0-2-.79-2.71-2.17-2.71s-2.16.74-2.16,2.71.87,3.5,3.7,6c3.61,3.18,4.75,5.46,4.75,8.61,0,4.4-2.2,6.91-6.44,6.91S24.32,95.38,24.32,91V89.29h4.09v2c0,2,.86,2.67,2.24,2.67s2.24-.7,2.24-2.67-.86-3.5-3.69-6c-3.62-3.18-4.76-5.46-4.76-8.61C24.44,72.27,26.6,69.76,30.81,69.76Z"/><path class="cls-1" d="M60.08,87.32V91c0,4.4-2.2,6.91-6.44,6.91S47.19,95.38,47.19,91V76.67c0-4.4,2.2-6.91,6.45-6.91s6.44,2.51,6.44,6.91v2.68H56V76.4c0-2-.86-2.71-2.23-2.71s-2.24.74-2.24,2.71V91.25c0,2,.86,2.67,2.24,2.67S56,93.22,56,91.25V87.32Z"/><path class="cls-1" d="M74.9,81.66h5.93v3.93H74.9v8.06h7.46v3.93H70.57V70.07H82.36V74H74.9Z"/><path class="cls-1" d="M96.82,77.66h-.08V97.58H92.85V70.07h5.43l4.36,16.47h.08V70.07h3.85V97.58h-4.44Z"/><path class="cls-1" d="M117.53,70.07h6.84c4.32,0,6.44,2.4,6.44,6.8V90.78c0,4.4-2.12,6.8-6.44,6.8h-6.84ZM121.85,74V93.65h2.44c1.37,0,2.2-.71,2.2-2.67V76.67c0-2-.83-2.67-2.2-2.67Z"/><polygon class="cls-1" points="37.2 53.69 30.49 53.69 52.14 0 58.85 0 37.2 53.69"/><polygon class="cls-1" points="56.93 53.69 50.22 53.69 71.87 0 78.58 0 56.93 53.69"/><polygon class="cls-2" points="47.8 53.69 42.44 53.69 64.08 0 69.45 0 47.8 53.69"/><polygon class="cls-1" points="93.61 53.69 100.32 53.69 81.39 6.73 78.03 15.05 93.61 53.69"/><polygon class="cls-1" points="73.88 53.69 80.59 53.69 71.52 31.19 68.17 39.51 73.88 53.69"/><polygon class="cls-2" points="85.69 53.69 91.06 53.69 76.76 18.21 74.07 24.87 85.69 53.69"/></g></g></svg>