<svg width="88" height="88" viewBox="0 0 88 88" fill="none" xmlns="http://www.w3.org/2000/svg">
<path d="M49.5 61.875L44 57.75L38.5 61.875L41.25 67.375L38.5 85.25H49.5L46.75 67.375L49.5 61.875Z" fill="#E2E8F0"/>
<path d="M44 1.375C32.6274 1.375 23.375 10.6274 23.375 22V33H24.75C24.75 29.9626 27.2126 27.5 30.25 27.5V22C30.25 22 35.75 23.375 44 23.375C52.25 23.375 57.75 22 57.75 22V27.5C60.7874 27.5 63.25 29.9626 63.25 33H64.625V22C64.625 10.6274 55.3726 1.375 44 1.375Z" fill="#E2E8F0"/>
<path d="M66.2943 55.9403L52.25 51.2585V48.4095C55.2887 46.4226 57.563 43.3728 58.5599 39.7923C61.9658 39.3867 64.625 36.513 64.625 32.9998C64.625 29.6792 62.2586 26.9017 59.1236 26.2637V20.2412L57.4172 20.6661C57.3636 20.6798 51.9599 21.9998 44 21.9998C36.0401 21.9998 30.6364 20.6798 30.5828 20.6661L28.875 20.2412V26.2637C25.7414 26.9031 23.375 29.6792 23.375 32.9998C23.375 36.513 26.0342 39.3867 29.4401 39.7923C30.4356 43.3742 32.7113 46.4226 35.75 48.4095V51.2585L21.7058 55.939C17.7705 57.2521 15.125 60.922 15.125 65.0717V86.6248H72.875V65.0717C72.875 60.922 70.2295 57.2521 66.2943 55.9403ZM61.875 32.9998C61.875 34.8107 60.6939 36.337 59.0672 36.8897C59.0961 36.5116 59.125 36.1348 59.125 35.7498V29.1278C60.7214 29.6971 61.875 31.2096 61.875 32.9998ZM26.125 32.9998C26.125 31.2096 27.2786 29.6971 28.875 29.1278V35.7498C28.875 36.1348 28.9039 36.5116 28.9327 36.8897C27.3061 36.337 26.125 34.8107 26.125 32.9998ZM53.3156 54.5131L51.4456 61.0608L46.3279 57.6481L51.15 53.7898L53.3156 54.5131ZM37.2322 46.0981L38.148 39.6892C38.2429 39.0155 38.8272 38.5095 39.5079 38.5095C39.5106 38.5095 39.512 38.5095 39.5148 38.5095L48.4963 38.5466C49.1714 38.5493 49.7544 39.0567 49.8493 39.725L50.765 46.0967C48.8194 47.3755 46.497 48.1248 44 48.1248C41.503 48.1248 39.1792 47.3755 37.2322 46.0981ZM31.625 35.7498V23.6911C33.8965 24.1105 38.2924 24.7498 44 24.7498C49.7076 24.7498 54.1035 24.1105 56.375 23.6911V35.7498C56.375 38.9 55.1829 41.7682 53.2372 43.9558L52.5731 39.3372C52.2844 37.3283 50.5381 35.8062 48.5072 35.798L39.5271 35.7608C39.5203 35.7608 39.5147 35.7608 39.5079 35.7608C37.466 35.7608 35.7115 37.2802 35.4241 39.3028L34.7586 43.9545C32.8171 41.7668 31.625 38.8986 31.625 35.7498ZM44 50.8748C45.9415 50.8748 47.7923 50.494 49.5 49.8243V51.5885L44 55.9885L38.5 51.5885V49.8243C40.2078 50.494 42.0585 50.8748 44 50.8748ZM36.85 53.7912L41.6721 57.6495L36.5544 61.0622L34.6844 54.5145L36.85 53.7912ZM22.5761 58.5487L32.0719 55.3835L34.9456 65.4388L43.9257 59.4521L44 59.5112L44.0743 59.4521L53.0544 65.4388L55.9281 55.3835L65.4239 58.5487C68.2358 59.4865 70.125 62.1072 70.125 65.0717V72.8748H63.25V64.6248H60.5V83.8748H27.5V64.6248H24.75V72.8748H17.875V65.0717C17.875 62.1072 19.7643 59.4865 22.5761 58.5487ZM17.875 75.6248H24.75V83.8748H17.875V75.6248ZM63.25 83.8748V75.6248H70.125V83.8748H63.25Z" fill="#94A3B8"/>
<path d="M37.125 31.625C37.8844 31.625 38.5 31.0094 38.5 30.25C38.5 29.4906 37.8844 28.875 37.125 28.875C36.3656 28.875 35.75 29.4906 35.75 30.25C35.75 31.0094 36.3656 31.625 37.125 31.625Z" fill="#94A3B8"/>
<path d="M50.875 31.625C51.6344 31.625 52.25 31.0094 52.25 30.25C52.25 29.4906 51.6344 28.875 50.875 28.875C50.1156 28.875 49.5 29.4906 49.5 30.25C49.5 31.0094 50.1156 31.625 50.875 31.625Z" fill="#94A3B8"/>
<path d="M46.75 41.25H41.25V44H46.75V41.25Z" fill="#94A3B8"/>
</svg>
