<svg width="34" height="34" viewBox="0 0 34 34" fill="none" xmlns="http://www.w3.org/2000/svg">
<path fill-rule="evenodd" clip-rule="evenodd" d="M17.0047 8.80566C14.1241 8.80566 11.7891 11.1408 11.7891 14.0213C11.7891 16.9018 14.1241 19.2369 17.0047 19.2369C19.8852 19.2369 22.2203 16.9018 22.2203 14.0213C22.2203 11.1408 19.8852 8.80566 17.0047 8.80566ZM13.8291 14.0213C13.8291 12.2674 15.2509 10.8457 17.0047 10.8457C18.7584 10.8457 20.1803 12.2674 20.1803 14.0213C20.1803 15.7751 18.7584 17.1969 17.0047 17.1969C15.2509 17.1969 13.8291 15.7751 13.8291 14.0213Z" fill="white"/>
<path fill-rule="evenodd" clip-rule="evenodd" d="M17.0043 3.8623C11.392 3.8623 6.84229 8.41199 6.84229 14.0243C6.84229 17.8382 8.29959 21.3102 10.0307 24.0967C11.7649 26.8881 13.8148 29.0575 15.0993 30.2862C16.1899 31.3294 17.8688 31.3275 18.9567 30.2809C20.2354 29.0509 22.2736 26.8815 23.9975 24.0908C25.7185 21.3049 27.1663 17.835 27.1663 14.0243C27.1663 8.41199 22.6166 3.8623 17.0043 3.8623ZM8.88229 14.0243C8.88229 9.53865 12.5186 5.9023 17.0043 5.9023C21.49 5.9023 25.1263 9.53865 25.1263 14.0243C25.1263 17.323 23.8682 20.4186 22.2619 23.0187C20.6587 25.6138 18.7486 27.6504 17.5424 28.8108C17.243 29.0988 16.8099 29.0995 16.5095 28.812C15.2975 27.6527 13.3763 25.616 11.7635 23.0202C10.1478 20.4194 8.88229 17.3231 8.88229 14.0243Z" fill="white"/>
</svg>
