<svg width="87" height="87" viewBox="0 0 87 87" fill="none" xmlns="http://www.w3.org/2000/svg">
<path d="M63.597 11.0831L49.2529 2.88743C45.7566 0.887785 41.2421 0.887785 37.7458 2.88743L23.403 11.0831C21.5447 12.1461 20.3906 14.1349 20.3906 16.2746C20.3906 17.4586 20.7373 18.6059 21.3938 19.5887L23.3377 22.5046H63.6623L65.6062 19.5887C66.2627 18.6059 66.6094 17.4586 66.6094 16.2746C66.6094 14.1349 65.4553 12.1461 63.597 11.0831Z" fill="#E2E8F0"/>
<path d="M48.9375 62.5312L43.5 57.0938L38.0625 62.5312L40.7812 66.6094L38.0625 84.2812H48.9375L46.2188 66.6094L48.9375 62.5312Z" fill="#E2E8F0"/>
<path d="M36.7031 32.625C37.4539 32.625 38.0625 32.0164 38.0625 31.2656C38.0625 30.5149 37.4539 29.9062 36.7031 29.9062C35.9524 29.9062 35.3438 30.5149 35.3438 31.2656C35.3438 32.0164 35.9524 32.625 36.7031 32.625Z" fill="#94A3B8"/>
<path d="M50.2969 32.625C51.0476 32.625 51.6562 32.0164 51.6562 31.2656C51.6562 30.5149 51.0476 29.9062 50.2969 29.9062C49.5461 29.9062 48.9375 30.5149 48.9375 31.2656C48.9375 32.0164 49.5461 32.625 50.2969 32.625Z" fill="#94A3B8"/>
<path d="M43.5 43.5C46.4988 43.5 48.9375 41.0613 48.9375 38.0625H46.2188C46.2188 39.5619 44.9994 40.7812 43.5 40.7812C42.0006 40.7812 40.7812 39.5619 40.7812 38.0625H38.0625C38.0625 41.0613 40.5012 43.5 43.5 43.5Z" fill="#94A3B8"/>
<path d="M23.1094 53.0156H20.3906V55.7344H23.1094V53.0156Z" fill="#94A3B8"/>
<path d="M72.0469 48.9375H54.375C53.9033 48.9375 53.4533 49.0163 53.0156 49.1305V46.8699C55.3415 44.9464 57.0638 42.3282 57.8944 39.3417C61.2616 38.9393 63.8906 36.0982 63.8906 32.625V20.3906H23.1094V32.625C23.1094 36.0982 25.7384 38.9393 29.1056 39.3403C29.9362 42.3269 31.6585 44.945 33.9844 46.8685V49.1292C33.5467 49.0163 33.0967 48.9375 32.625 48.9375H14.9531V59.8125H16.0243C15.327 61.1528 14.9531 62.6482 14.9531 64.2019V85.6406H43.5H72.0469V64.2019C72.0469 62.6495 71.673 61.1528 70.9757 59.8125H72.0469V48.9375ZM69.3281 51.6562V57.0938H59.8125V51.6562H69.3281ZM57.0938 51.6562V57.0938H54.375C52.8756 57.0938 51.6562 55.8744 51.6562 54.375C51.6562 52.8756 52.8756 51.6562 54.375 51.6562H57.0938ZM38.0584 54.3288L41.4868 57.1862L34.8204 63.8526L33.9749 59.6235C36.3171 59.0186 38.0625 56.9062 38.0625 54.375C38.0625 54.3587 38.0584 54.3437 38.0584 54.3288ZM53.0265 59.6235L52.181 63.8526L45.5146 57.1862L48.9429 54.3288C48.9416 54.3437 48.9375 54.3587 48.9375 54.375C48.9375 56.9062 50.6829 59.0186 53.0265 59.6235ZM58.396 36.4707C58.4246 36.0968 58.4531 35.7244 58.4531 35.3438V28.797C60.0314 29.3598 61.1719 30.8551 61.1719 32.625C61.1719 34.4153 60.0042 35.9242 58.396 36.4707ZM61.1719 27.2228C60.378 26.622 59.4631 26.172 58.4531 25.9668V23.1094H61.1719V27.2228ZM55.279 23.1094C53.9006 25.2368 49.4473 27.1875 43.5 27.1875C37.5527 27.1875 33.0994 25.2368 31.721 23.1094H55.279ZM28.5469 23.1094V25.9654C27.5369 26.172 26.622 26.6206 25.8281 27.2215V23.1094H28.5469ZM25.8281 32.625C25.8281 30.8551 26.9686 29.3598 28.5469 28.797V35.3438C28.5469 35.7244 28.5754 36.0968 28.604 36.4707C26.9958 35.9242 25.8281 34.4153 25.8281 32.625ZM31.2656 35.3438V26.4861C33.949 28.5673 38.3806 29.9062 43.5 29.9062C48.6194 29.9062 53.051 28.5673 55.7344 26.4861V35.3438C55.7344 42.0903 50.2452 47.5781 43.5 47.5781C36.7548 47.5781 31.2656 42.0903 31.2656 35.3438ZM43.5 50.2969C45.9482 50.2969 48.2551 49.6933 50.2969 48.6466V49.6607L43.5 55.3252L36.7031 49.6607V48.6466C38.7449 49.6933 41.0518 50.2969 43.5 50.2969ZM35.3438 54.375C35.3438 55.8744 34.1244 57.0938 32.625 57.0938H29.9062V51.6562H32.625C34.1244 51.6562 35.3438 52.8756 35.3438 54.375ZM17.6719 51.6562H27.1875V57.0938H17.6719V51.6562ZM17.6719 73.4062H25.8281V82.9219H17.6719V73.4062ZM61.1719 82.9219V73.4062H69.3281V82.9219H61.1719ZM69.3281 64.2019V70.6875H61.1719V63.8906H58.4531V82.9219H43.5H28.5469V63.8906H25.8281V70.6875H17.6719V64.2019C17.6719 62.5707 18.27 61.0427 19.3181 59.8125H31.2384L33.1497 69.3662L43.5 59.0159L53.8503 69.3662L55.7616 59.8125H67.6819C68.73 61.0414 69.3281 62.5693 69.3281 64.2019Z" fill="#94A3B8"/>
<path d="M66.4626 53.0317H63.7439V55.7505H66.4626V53.0317Z" fill="#94A3B8"/>
<path d="M41.1021 17.9927L43.5 19.1917L45.8979 17.9927C46.0882 17.8975 46.2623 17.7806 46.443 17.6719H63.8906V14.9531H49.1727C49.8931 13.746 50.2969 12.3486 50.2969 10.875C50.2969 8.62659 48.4672 6.79688 46.2188 6.79688H40.7812C38.5328 6.79688 36.7031 8.62659 36.7031 10.875C36.7031 12.3486 37.1069 13.746 37.8273 14.9531H23.1094V17.6719H40.557C40.7377 17.7806 40.9104 17.8975 41.1021 17.9927ZM40.7812 9.51562H46.2188C46.9678 9.51562 47.5781 10.1246 47.5781 10.875C47.5781 12.8733 46.4689 14.6677 44.6827 15.5608L43.5 16.1521L42.3173 15.5608C40.5311 14.6677 39.4219 12.8733 39.4219 10.875C39.4219 10.1246 40.0322 9.51562 40.7812 9.51562Z" fill="#94A3B8"/>
</svg>
