<svg width="100" height="100" viewBox="0 0 100 100" fill="none" xmlns="http://www.w3.org/2000/svg">
<path d="M9.76087 70.8795V54.9433H9.96007H98.0079V47.5728H11.089C6.06485 47.5728 1.99194 51.6457 1.99194 56.6698V69.1532C1.99194 74.1774 6.06485 78.2503 11.089 78.2503H98.0079V70.8797H9.96007L9.76087 70.8795Z" fill="#94A3B8"/>
<path d="M91.2351 54.9434H9.82739V70.8796H91.2351V54.9434Z" fill="#F0EFE4"/>
<path d="M84.2452 41.3683V27.9534H84.0775H9.96021V21.749H83.1273C87.3566 21.749 90.785 25.1775 90.785 29.4068V39.9151C90.785 44.1444 87.3566 47.5729 83.1273 47.5729H9.96021V41.3685H84.0775H84.2452V41.3683Z" fill="#94A3B8"/>
<path d="M84.1893 27.9536H15.6616V41.3685H84.1893V27.9536Z" fill="#F0EFE4"/>
<path d="M98.008 56.9354C99.1082 56.9354 100 56.0436 100 54.9434V47.5729C100 46.4727 99.1082 45.5808 98.008 45.5808H90.9317C92.0908 43.9886 92.7771 42.031 92.7771 39.9153V29.4069C92.7771 24.086 88.4482 19.7573 83.1275 19.7573H9.96016C8.85996 19.7573 7.96813 20.6492 7.96813 21.7494V27.9537C7.96813 29.0539 8.85996 29.9458 9.96016 29.9458H13.6695V39.3767H9.96016C8.85996 39.3767 7.96813 40.2685 7.96813 41.3687V46.0312C3.36873 47.3828 0 51.6392 0 56.6701V69.1536C0 75.2681 4.9745 80.2426 11.089 80.2426H98.008C99.1082 80.2426 100 79.3508 100 78.2506V70.8801C100 69.7799 99.1082 68.888 98.008 68.888H93.2271V56.9358H98.008V56.9354ZM17.6536 36.6531H65.2966C66.3968 36.6531 67.2887 35.7613 67.2887 34.6611C67.2887 33.5609 66.3968 32.6691 65.2966 32.6691H17.6536V29.9458H82.1972V39.3767H17.6536V36.6531ZM11.9522 43.3605H15.6616H84.1892H84.2452C85.3454 43.3605 86.2373 42.4687 86.2373 41.3685V27.9535C86.2373 26.8533 85.3454 25.9615 84.2452 25.9615H84.1892H15.6616H11.9522V23.7412H83.1273C86.2514 23.7412 88.7928 26.2828 88.7928 29.4067V39.9151C88.7928 43.0392 86.2512 45.5806 83.1273 45.5806H11.9522V43.3605ZM96.0159 76.2581H11.089C7.17132 76.2581 3.98406 73.0709 3.98406 69.1534V56.6699C3.98406 52.7522 7.17132 49.5649 11.089 49.5649H83.1273H96.0159V52.9514H91.2351H9.82729H9.76096C8.66076 52.9514 7.76892 53.8432 7.76892 54.9434V70.8797C7.76892 71.9799 8.66076 72.8717 9.76096 72.8717H9.82729H91.2351H96.0159V76.2581ZM89.243 58.3298H32.2709C31.1707 58.3298 30.2789 59.2217 30.2789 60.3219C30.2789 61.4221 31.1707 62.3139 32.2709 62.3139H89.243V63.7083H18.9243C17.8241 63.7083 16.9323 64.6002 16.9323 65.7004C16.9323 66.8006 17.8241 67.6924 18.9243 67.6924H89.243V68.8876H11.8193V56.9354H89.243V58.3298Z" fill="#1E293B"/>
<path d="M18.9244 62.3141H23.3069C24.4071 62.3141 25.2989 61.4223 25.2989 60.3221C25.2989 59.2219 24.4071 58.3301 23.3069 58.3301H18.9244C17.8242 58.3301 16.9324 59.2219 16.9324 60.3221C16.9324 61.4223 17.8242 62.3141 18.9244 62.3141Z" fill="#1E293B"/>
<path d="M76.5314 32.6689H72.8421C71.7419 32.6689 70.8501 33.5608 70.8501 34.661C70.8501 35.7612 71.7419 36.653 72.8421 36.653H76.5314C77.6316 36.653 78.5234 35.7612 78.5234 34.661C78.5234 33.5608 77.6316 32.6689 76.5314 32.6689Z" fill="#1E293B"/>
</svg>
