<svg width="64" height="55" viewBox="0 0 64 55" fill="none" xmlns="http://www.w3.org/2000/svg">
<path fill-rule="evenodd" clip-rule="evenodd" d="M31.7021 10.716C28.8685 10.716 26.1414 10.9891 23.5816 11.4934C22.2947 11.747 21.0382 10.9477 20.7749 9.70814C20.5117 8.46861 21.3415 7.25823 22.6284 7.00469C25.5061 6.4377 28.5526 6.13428 31.7021 6.13428C40.2048 6.13428 48.0099 8.34807 53.7586 12.0477C59.4911 15.7369 63.4045 21.0837 63.4045 27.2971C63.4045 33.5103 59.4911 38.8571 53.7586 42.5463C48.0099 46.246 40.2048 48.4599 31.7021 48.4599C28.4501 48.4599 25.3073 48.1364 22.3469 47.5328C21.0619 47.2709 20.2407 46.0551 20.5127 44.8173C20.7846 43.5795 22.0468 42.7885 23.3319 43.0504C25.9636 43.587 28.7761 43.8782 31.7021 43.8782C39.3946 43.8782 46.2515 41.8674 51.1161 38.7367C55.9969 35.5956 58.6479 31.5064 58.6479 27.2971C58.6479 23.0875 55.9969 18.9983 51.1161 15.8573C46.2516 12.7267 39.3946 10.716 31.7021 10.716ZM11.08 13.7526C11.8987 14.742 11.7297 16.1833 10.7025 16.9719C6.83021 19.9447 4.75656 23.5661 4.75656 27.2975C4.75656 31.0271 6.828 34.6467 10.6963 37.6181C11.7232 38.4069 11.8918 39.8483 11.0729 40.8375C10.2539 41.8266 8.75754 41.989 7.73062 41.2002C3.06563 37.6168 0 32.7877 0 27.2975C0 21.8044 3.06897 16.9733 7.73788 13.389C8.76504 12.6004 10.2614 12.7632 11.08 13.7526Z" fill="#64748B"/>
<path fill-rule="evenodd" clip-rule="evenodd" d="M9.06571 36.8066C10.3628 36.7543 11.4569 37.7588 11.5094 39.0501C11.6779 43.1926 10.0468 46.8618 8.51299 49.3812C8.40402 49.5602 8.29489 49.7344 8.18615 49.9038C12.9282 49.7255 17.6855 47.9055 20.7319 43.7719C21.4999 42.7299 22.9708 42.5049 24.0175 43.2695C25.0641 44.034 25.29 45.4985 24.5221 46.5405C19.1765 53.7938 10.2695 55.3955 3.25628 54.2654C2.05394 54.0716 1.21321 53.0018 1.28531 51.8167C1.31722 51.2679 1.54235 50.7281 1.96104 50.3069C1.96166 50.3063 1.96227 50.3057 1.96288 50.305L1.96175 50.3062L1.96497 50.3029C1.97039 50.2973 1.98102 50.2864 1.9965 50.2703C2.02747 50.238 2.07779 50.1848 2.14463 50.1118C2.27844 49.9658 2.47754 49.7416 2.71956 49.4484C3.20546 48.8596 3.854 48.0047 4.49282 46.9554C5.79459 44.8171 6.92795 42.0823 6.81229 39.2395C6.75976 37.9482 7.76865 36.8589 9.06571 36.8066ZM1.96288 50.305C1.96306 50.3049 1.96325 50.3047 1.96343 50.3045L1.96299 50.3049L1.96288 50.305Z" fill="#64748B"/>
<path fill-rule="evenodd" clip-rule="evenodd" d="M24.6476 11.2082C25.7055 10.4552 25.9338 9.01306 25.1576 7.98693C19.7477 0.834983 10.3502 -0.793529 3.27726 0.317726C1.98205 0.52122 1.10214 1.70465 1.31193 2.961C1.52172 4.21734 2.74176 5.07084 4.03697 4.86735C10.0572 3.92149 17.3391 5.44182 21.3267 10.7134C22.1029 11.7396 23.5897 11.9611 24.6476 11.2082Z" fill="#64748B"/>
<path fill-rule="evenodd" clip-rule="evenodd" d="M9.10057 17.1739C10.3829 17.2232 11.4646 16.278 11.5165 15.0628C11.6835 11.1549 10.0316 7.67131 8.48705 5.28015C7.70162 4.06417 6.90854 3.07595 6.30924 2.38851C6.00864 2.0437 5.75421 1.77162 5.5703 1.5813C5.47827 1.48607 5.40368 1.41108 5.34954 1.35747C5.32246 1.33066 5.30048 1.30917 5.28396 1.29315C5.2757 1.28514 5.26881 1.27849 5.26332 1.27323L5.25616 1.26636L5.2522 1.26258C5.25167 1.26207 5.25115 1.26159 3.60479 2.81562L5.25115 1.26159C4.34543 0.399965 2.87409 0.397247 1.96483 1.25552C1.05672 2.1127 1.05271 3.50451 1.955 4.36638C1.95557 4.36693 1.95614 4.36747 1.95671 4.36802L1.95556 4.36691L1.95929 4.37053C1.96497 4.37604 1.97592 4.38672 1.99177 4.40242C2.02349 4.43383 2.07476 4.48525 2.14271 4.55556C2.27876 4.69635 2.48079 4.91194 2.72619 5.19343C3.21887 5.75857 3.87593 6.5774 4.52307 7.57929C5.84372 9.62389 6.98666 12.2193 6.87274 14.8846C6.8208 16.0998 7.81824 17.1247 9.10057 17.1739ZM1.95671 4.36802L1.95751 4.36878C1.95751 4.36878 1.95752 4.36878 1.95751 4.36878C1.95724 4.36852 1.95698 4.36827 1.95671 4.36802Z" fill="#64748B"/>
<path d="M19.2135 28.2172C19.9209 28.2172 20.4944 27.8052 20.4944 27.2971C20.4944 26.7889 19.9209 26.377 19.2135 26.377C18.5061 26.377 17.9326 26.7889 17.9326 27.2971C17.9326 27.8052 18.5061 28.2172 19.2135 28.2172Z" fill="#64748B"/>
<path fill-rule="evenodd" clip-rule="evenodd" d="M19.5338 27.3997C19.5931 27.3997 19.6412 27.3537 19.6412 27.2969C19.6412 27.24 19.5931 27.194 19.5338 27.194C19.4745 27.194 19.4264 27.24 19.4264 27.2969C19.4264 27.3537 19.4745 27.3997 19.5338 27.3997ZM17.2922 27.2969C17.2922 26.1111 18.2958 25.1499 19.5338 25.1499C20.7718 25.1499 21.7754 26.1111 21.7754 27.2969C21.7754 28.4826 20.7718 29.4438 19.5338 29.4438C18.2958 29.4438 17.2922 28.4826 17.2922 27.2969Z" fill="#64748B"/>
<path d="M31.7022 28.8306C32.5865 28.8306 33.3033 28.2813 33.3033 27.6038C33.3033 26.9262 32.5865 26.377 31.7022 26.377C30.8179 26.377 30.1011 26.9262 30.1011 27.6038C30.1011 28.2813 30.8179 28.8306 31.7022 28.8306Z" fill="#64748B"/>
<path fill-rule="evenodd" clip-rule="evenodd" d="M31.7023 27.3997C31.7616 27.3997 31.8097 27.3537 31.8097 27.2969C31.8097 27.24 31.7616 27.194 31.7023 27.194C31.6429 27.194 31.5948 27.24 31.5948 27.2969C31.5948 27.3537 31.6429 27.3997 31.7023 27.3997ZM29.4607 27.2969C29.4607 26.1111 30.4643 25.1499 31.7023 25.1499C32.9402 25.1499 33.9438 26.1111 33.9438 27.2969C33.9438 28.4826 32.9403 29.4438 31.7023 29.4438C30.4643 29.4438 29.4607 28.4826 29.4607 27.2969Z" fill="#64748B"/>
<path d="M44.1911 28.8306C44.8985 28.8306 45.472 28.2813 45.472 27.6038C45.472 26.9262 44.8985 26.377 44.1911 26.377C43.4836 26.377 42.9102 26.9262 42.9102 27.6038C42.9102 28.2813 43.4836 28.8306 44.1911 28.8306Z" fill="#64748B"/>
<path fill-rule="evenodd" clip-rule="evenodd" d="M43.8707 27.3997C43.93 27.3997 43.9781 27.3537 43.9781 27.2969C43.9781 27.24 43.9301 27.194 43.8707 27.194C43.8114 27.194 43.7633 27.24 43.7633 27.2969C43.7633 27.3537 43.8114 27.3997 43.8707 27.3997ZM41.6292 27.2969C41.6292 26.1111 42.6327 25.1499 43.8707 25.1499C45.1087 25.1499 46.1123 26.1111 46.1123 27.2969C46.1123 28.4826 45.1087 29.4438 43.8707 29.4438C42.6327 29.4438 41.6292 28.4826 41.6292 27.2969Z" fill="#64748B"/>
</svg>
