<svg width="86" height="86" viewBox="0 0 86 86" fill="none" xmlns="http://www.w3.org/2000/svg">
<path d="M57.3338 10.9529L57.1255 10.5887C53.8669 4.88722 47.7623 1.34375 41.1927 1.34375C31.0756 1.34375 22.8438 9.57556 22.8438 19.6927V32.25H24.1875C24.1875 29.2817 26.5942 26.875 29.5625 26.875V21.5H33.2672C36.9168 21.5 40.4187 20.0501 43 17.4688C45.5813 20.0501 49.0818 21.5 52.7328 21.5H56.4375V26.875C59.4058 26.875 61.8125 29.2817 61.8125 32.25H63.1562V18.9778C63.1562 15.2972 60.7899 12.0776 57.3338 10.9529Z" fill="#E2E8F0"/>
<path d="M48.375 83.3125H37.625V60.4688L43 56.4375L48.375 60.4688V83.3125Z" fill="#E2E8F0"/>
<path d="M34.9375 32.25C35.6796 32.25 36.2812 31.6484 36.2812 30.9062C36.2812 30.1641 35.6796 29.5625 34.9375 29.5625C34.1954 29.5625 33.5938 30.1641 33.5938 30.9062C33.5938 31.6484 34.1954 32.25 34.9375 32.25Z" fill="#94A3B8"/>
<path d="M49.7188 32.25C50.4609 32.25 51.0625 31.6484 51.0625 30.9062C51.0625 30.1641 50.4609 29.5625 49.7188 29.5625C48.9766 29.5625 48.375 30.1641 48.375 30.9062C48.375 31.6484 48.9766 32.25 49.7188 32.25Z" fill="#94A3B8"/>
<path d="M43 44.3438C45.9643 44.3438 48.375 41.9331 48.375 38.9688H45.6875C45.6875 40.4509 44.4822 41.6562 43 41.6562C41.5178 41.6562 40.3125 40.4509 40.3125 38.9688H37.625C37.625 41.9331 40.0357 44.3438 43 44.3438Z" fill="#94A3B8"/>
<path d="M71.2188 53.7502C71.2188 50.7859 68.8081 48.3752 65.8438 48.3752H52.4062V46.3313C54.7054 44.4299 56.4079 41.8419 57.229 38.8896C60.5574 38.4919 63.1562 35.6834 63.1562 32.2502C63.1562 29.0063 60.8437 26.292 57.7812 25.6671V20.1564H52.7314C49.4137 20.1564 46.2962 18.8651 43.95 16.5189L43 15.5688L42.05 16.5189C39.7038 18.8651 36.5863 20.1564 33.2686 20.1564H28.2188V25.6671C25.1563 26.292 22.8438 29.005 22.8438 32.2502C22.8438 35.6834 25.4426 38.4919 28.771 38.8883C29.5921 41.8405 31.2946 44.4286 33.5938 46.33V48.3752H20.1562C17.1919 48.3752 14.7812 50.7859 14.7812 53.7502C14.7812 55.3815 15.527 56.8274 16.6786 57.815C15.4531 59.4369 14.7812 61.3974 14.7812 63.4641V84.6564H71.2188V63.4641C71.2188 61.3974 70.5469 59.4369 69.3214 57.815C70.473 56.8274 71.2188 55.3815 71.2188 53.7502ZM68.5312 53.7502C68.5312 55.2323 67.3259 56.4377 65.8438 56.4377H60.4688V51.0627H65.8438C67.3259 51.0627 68.5312 52.268 68.5312 53.7502ZM30.8794 56.4377H28.2188V51.0627H29.8044L30.8794 56.4377ZM40.803 56.357L34.5048 60.8559L32.5456 51.0627H34.4511L40.803 56.357ZM51.5503 51.0627H53.4557L51.4965 60.8546L45.1984 56.3557L51.5503 51.0627ZM56.1956 51.0627H57.7812V56.4377H55.1206L56.1956 51.0627ZM55.0938 33.5939H47.0312V28.2189H55.0938V33.5939ZM60.4688 32.2502C60.4688 34.0199 59.3145 35.5114 57.7248 36.0516C57.753 35.6821 57.7812 35.3139 57.7812 34.9377V28.4662C59.3413 29.0225 60.4688 30.5006 60.4688 32.2502ZM33.2686 22.8439C36.8712 22.8439 40.2803 21.5915 43 19.2924C45.7197 21.5915 49.1302 22.8439 52.7314 22.8439H55.0938V25.5314H47.0312C45.5491 25.5314 44.3438 26.7368 44.3438 28.2189V29.5627H41.6562V28.2189C41.6562 26.7368 40.4509 25.5314 38.9688 25.5314H30.9062V22.8439H33.2686ZM30.9062 28.2189H38.9688V33.5939H30.9062V28.2189ZM25.5312 32.2502C25.5312 30.5006 26.6587 29.0225 28.2188 28.4662V34.9377C28.2188 35.3139 28.247 35.6821 28.2752 36.0516C26.6855 35.5114 25.5312 34.0199 25.5312 32.2502ZM30.9855 36.2814H38.9688C40.4509 36.2814 41.6562 35.0761 41.6562 33.5939V32.2502H44.3438V33.5939C44.3438 35.0761 45.5491 36.2814 47.0312 36.2814H55.0145C54.3439 42.3189 49.2148 47.0314 43 47.0314C36.7852 47.0314 31.6561 42.3189 30.9855 36.2814ZM43 49.7189C45.4201 49.7189 47.7004 49.1223 49.7188 48.0876V49.09L43 54.6881L36.2812 49.09V48.0876C38.2996 49.1223 40.5799 49.7189 43 49.7189ZM20.1562 51.0627H25.5312V56.4377H20.1562C18.6741 56.4377 17.4688 55.2323 17.4688 53.7502C17.4688 52.268 18.6741 51.0627 20.1562 51.0627ZM17.4688 72.5627H25.5312V81.9689H17.4688V72.5627ZM60.4688 81.9689V72.5627H68.5312V81.9689H60.4688ZM68.5312 63.4641V69.8752H60.4688V63.1564H57.7812V81.9689H28.2188V63.1564H25.5312V69.8752H17.4688V63.4641C17.4688 61.8086 18.0869 60.2579 19.178 59.0271C19.4965 59.0848 19.8217 59.1252 20.1562 59.1252H31.4169L32.6827 65.4583L43 58.0891L53.3173 65.4583L54.5831 59.1252H65.8438C66.1783 59.1252 66.5035 59.0848 66.822 59.0257C67.9131 60.2566 68.5312 61.8073 68.5312 63.4641Z" fill="#94A3B8"/>
<path d="M44.3438 63.1562H41.6562V65.8438H44.3438V63.1562Z" fill="#94A3B8"/>
<path d="M44.3438 69.875H41.6562V72.5625H44.3438V69.875Z" fill="#94A3B8"/>
<path d="M44.3438 76.5938H41.6562V79.2812H44.3438V76.5938Z" fill="#94A3B8"/>
<path d="M65.8438 52.4062H63.1562V55.0938H65.8438V52.4062Z" fill="#94A3B8"/>
<path d="M22.8438 52.4062H20.1562V55.0938H22.8438V52.4062Z" fill="#94A3B8"/>
</svg>
