<svg width="100" height="100" viewBox="0 0 100 100" fill="none" xmlns="http://www.w3.org/2000/svg">
<path d="M98.0079 17.729H1.99194V82.2709H98.0079V17.729Z" fill="#94A3B8"/>
<path d="M61.7473 62.688L50.3984 74.7011L58.9375 74.7944L66.3957 67.3362C64.3295 66.4159 62.6678 64.7541 61.7473 62.688Z" fill="#F0EFE4"/>
<path d="M89.8407 74.7011L78.4919 62.688C77.5714 64.7541 75.9098 66.4159 73.8435 67.3364L81.3017 74.7946L89.8407 74.7011Z" fill="#F0EFE4"/>
<path d="M70.1194 49.8008C65.0586 49.8008 60.9561 53.9034 60.9561 58.9641C60.9561 60.2906 61.2401 61.5498 61.7471 62.688C62.6676 64.7542 64.3292 66.4159 66.3955 67.3364C67.5337 67.8434 68.7929 68.1275 70.1194 68.1275C71.4459 68.1275 72.7051 67.8434 73.8433 67.3364C75.9096 66.4159 77.5712 64.7544 78.4917 62.688C78.9987 61.5498 79.2827 60.2906 79.2827 58.9641C79.2827 53.9034 75.1801 49.8008 70.1194 49.8008Z" fill="#F0EFE4"/>
<path d="M98.008 15.7368H1.99203C0.892032 15.7368 0 16.6286 0 17.7288V82.2707C0 83.3709 0.892032 84.2627 1.99203 84.2627H98.008C99.108 84.2627 100 83.3709 100 82.2707V17.7288C100 16.6286 99.108 15.7368 98.008 15.7368ZM96.0159 80.2787H3.98406V19.7209H96.0159V80.2787Z" fill="#1E293B"/>
<path d="M58.9642 58.964C58.9642 60.0779 59.13 61.1668 59.4515 62.2174L48.9503 73.3331C48.4067 73.9084 48.2555 74.751 48.5646 75.4795C48.8738 76.208 49.5852 76.6843 50.3766 76.6931L58.9156 76.7863C58.923 76.7863 58.9302 76.7863 58.9374 76.7863C59.4652 76.7863 59.972 76.5765 60.3459 76.2028L66.9053 69.6437C67.9439 69.9574 69.0196 70.1193 70.1196 70.1193C71.2196 70.1193 72.2953 69.9574 73.3338 69.6437L79.8931 76.2028C80.267 76.5765 80.7738 76.7863 81.3017 76.7863C81.3089 76.7863 81.316 76.7863 81.3234 76.7863L89.8625 76.6931C90.6539 76.6845 91.3651 76.208 91.6744 75.4795C91.9838 74.751 91.8324 73.9084 91.2888 73.3331L80.7876 62.2174C81.1093 61.1668 81.275 60.0779 81.275 58.964C81.275 52.813 76.2708 47.8086 70.1196 47.8086C63.9684 47.8086 58.9642 52.813 58.9642 58.964ZM58.1216 72.7931L54.9738 72.7588L61.4152 65.9403L61.4156 65.9365C61.9425 66.5944 62.5419 67.1899 63.2033 67.7126L63.2005 67.714L58.1216 72.7931ZM78.8236 65.9367L78.824 65.9405L85.2655 72.759L82.1176 72.7933L77.0386 67.7142L77.0346 67.7136C77.6967 67.1907 78.2965 66.5948 78.8236 65.9367ZM77.2909 58.964C77.2909 59.9757 77.0828 60.9558 76.6722 61.8773C75.9491 63.5008 74.6567 64.7933 73.0326 65.5166C72.1113 65.9271 71.1312 66.1353 70.1196 66.1353C69.1081 66.1353 68.128 65.9271 67.2065 65.5166C65.5828 64.7933 64.2901 63.5008 63.5668 61.8771C63.1565 60.9558 62.9483 59.9757 62.9483 58.964C62.9483 55.0096 66.1652 51.7927 70.1196 51.7927C74.074 51.7927 77.2909 55.0096 77.2909 58.964Z" fill="#1E293B"/>
<path d="M12.7491 30.4777H47.0121C48.1121 30.4777 49.0041 29.5859 49.0041 28.4857C49.0041 27.3855 48.1121 26.4937 47.0121 26.4937H12.7491C11.6491 26.4937 10.7571 27.3855 10.7571 28.4857C10.7571 29.5859 11.6491 30.4777 12.7491 30.4777Z" fill="#1E293B"/>
<path d="M55.7769 30.4777H60.3586C61.4586 30.4777 62.3507 29.5859 62.3507 28.4857C62.3507 27.3855 61.4586 26.4937 60.3586 26.4937H55.7769C54.6769 26.4937 53.7849 27.3855 53.7849 28.4857C53.7849 29.5859 54.6769 30.4777 55.7769 30.4777Z" fill="#1E293B"/>
<path d="M12.7491 50.9958H47.0121C48.1121 50.9958 49.0041 50.1039 49.0041 49.0037C49.0041 47.9036 48.1121 47.0117 47.0121 47.0117H12.7491C11.6491 47.0117 10.7571 47.9036 10.7571 49.0037C10.7571 50.1039 11.6491 50.9958 12.7491 50.9958Z" fill="#1E293B"/>
<path d="M12.7491 40.6374H75.2989C76.3989 40.6374 77.291 39.7455 77.291 38.6454C77.291 37.5452 76.3989 36.6533 75.2989 36.6533H12.7491C11.6491 36.6533 10.7571 37.5452 10.7571 38.6454C10.7571 39.7455 11.6491 40.6374 12.7491 40.6374Z" fill="#1E293B"/>
<path d="M66.9181 62.1651C67.3071 62.5542 67.8167 62.7486 68.3266 62.7486C68.8366 62.7486 69.3462 62.5542 69.7352 62.1651L73.1217 58.7787C73.8995 58.0008 73.8995 56.7394 73.1217 55.9613C72.3436 55.1835 71.0826 55.1835 70.3043 55.9613L66.9179 59.3478C66.14 60.1259 66.14 61.3872 66.9181 62.1651Z" fill="#1E293B"/>
</svg>
