<svg width="100" height="100" viewBox="0 0 100 100" fill="none" xmlns="http://www.w3.org/2000/svg">
<g clip-path="url(#clip0_85_166)">
<path d="M66.2876 44.9646L98.0079 13.2441H75.6454L50 38.5855L24.3547 13.2441H1.99219L33.7126 44.9646C37.9989 41.023 43.718 38.6156 50 38.6156C56.2821 38.6156 62.0014 41.023 66.2876 44.9646Z" fill="#F0EFE4"/>
<path d="M66.2876 44.9642C62.0014 41.0226 56.2821 38.6152 50 38.6152C43.7179 38.6152 37.9988 41.0228 33.7126 44.9642C28.9287 49.3634 25.9299 55.6738 25.9299 62.6853C25.9299 75.9789 36.7066 86.7556 50.0002 86.7556C63.2938 86.7556 74.0705 75.9789 74.0705 62.6853C74.0703 55.6738 71.0715 49.3634 66.2876 44.9642Z" fill="#94A3B8"/>
<path d="M99.8483 12.4818C99.54 11.7374 98.8137 11.2522 98.0079 11.2522H75.6454C75.1213 11.2522 74.6181 11.4587 74.2452 11.8273L50 35.7848L25.7548 11.8271C25.3819 11.4585 24.8789 11.252 24.3546 11.252H1.99214C1.18656 11.252 0.460069 11.7374 0.151703 12.4816C-0.156663 13.2261 0.013855 14.0828 0.583376 14.6525L30.8941 44.9633C26.4509 49.7603 23.9375 56.1097 23.9375 62.6856C23.9375 77.0563 35.6289 88.7479 49.9998 88.7479C64.3707 88.7479 76.0621 77.0565 76.0621 62.6856C76.0621 56.1099 73.5488 49.7603 69.1056 44.9633L99.4163 14.6525C99.9862 14.083 100.157 13.2263 99.8483 12.4818ZM23.5365 15.2362L45.5628 37.0013L45.5572 37.0037C41.2783 37.7406 37.2496 39.5354 33.8228 42.2529L33.8196 42.2543L6.80129 15.2362H23.5365ZM50 84.7638C37.8261 84.7638 27.9218 74.8597 27.9218 62.6856C27.9218 56.5274 30.524 50.6029 35.061 46.4306C39.1447 42.6752 44.45 40.6073 50 40.6073C55.55 40.6073 60.8554 42.6754 64.939 46.4306C69.4761 50.6027 72.0783 56.5274 72.0783 62.6856C72.0783 74.8597 62.1741 84.7638 50 84.7638ZM66.1805 42.2543L66.1773 42.2529C62.7504 39.5354 58.7217 37.7406 54.4428 37.0037L54.4373 37.0013L76.4637 15.2362H93.1989L66.1805 42.2543Z" fill="#1E293B"/>
<path d="M75.0854 22.6238C75.4744 23.0128 75.9842 23.2072 76.494 23.2072C77.0037 23.2072 77.5137 23.0128 77.9025 22.6238L79.2969 21.2294C80.0748 20.4515 80.0748 19.1901 79.2969 18.412C78.5191 17.6341 77.2577 17.6341 76.4796 18.412L75.0852 19.8064C74.3075 20.5843 74.3075 21.8457 75.0854 22.6238Z" fill="#1E293B"/>
<path d="M70.3046 24.5873L61.4401 33.4518C60.6622 34.2297 60.6622 35.4911 61.4401 36.2692C61.8291 36.6582 62.3389 36.8526 62.8487 36.8526C63.3584 36.8526 63.8684 36.6582 64.2572 36.2692L73.1218 27.4046C73.8996 26.6268 73.8996 25.3654 73.1218 24.5873C72.3439 23.8094 71.0825 23.8094 70.3046 24.5873Z" fill="#1E293B"/>
<path d="M51.9921 44.9896C51.9921 43.8894 51.1002 42.9976 50 42.9976C45.0508 42.9976 40.3194 44.842 36.6775 48.191C35.8678 48.9356 35.815 50.1958 36.5596 51.0057C36.9524 51.4328 37.4885 51.6493 38.0264 51.6493C38.5082 51.6493 38.9917 51.4754 39.3744 51.1236C42.2789 48.4527 46.0524 46.9818 50 46.9818C51.1002 46.9816 51.9921 46.0896 51.9921 44.9896Z" fill="#1E293B"/>
<path d="M33.5491 55.8547C32.4923 55.5491 31.388 56.1589 31.0828 57.2159C30.5716 58.9866 30.3123 60.8268 30.3123 62.6854C30.3123 63.7856 31.2041 64.6774 32.3043 64.6774C33.4045 64.6774 34.2963 63.7856 34.2963 62.6854C34.2963 61.2009 34.5029 59.7326 34.9105 58.321C35.2156 57.2643 34.6061 56.1599 33.5491 55.8547Z" fill="#1E293B"/>
<path d="M50.7968 50.7969C50.7643 50.7969 50.7326 50.8003 50.7003 50.8017C50.1567 50.7738 49.6039 50.965 49.1888 51.3801L42.0175 58.5514C41.2396 59.3293 41.2396 60.5907 42.0175 61.3688C42.4065 61.7578 42.9163 61.9522 43.4261 61.9522C43.9358 61.9522 44.4458 61.7578 44.8346 61.3688L48.8047 57.3991V74.9004C48.8047 76.0006 49.6966 76.8924 50.7968 76.8924C51.897 76.8924 52.7888 76.0006 52.7888 74.9004V52.7889C52.7888 51.6887 51.897 50.7969 50.7968 50.7969Z" fill="#1E293B"/>
</g>
<defs>
<clipPath id="clip0_85_166">
<rect width="100" height="100" fill="white"/>
</clipPath>
</defs>
</svg>
