<svg width="34" height="34" viewBox="0 0 34 34" fill="none" xmlns="http://www.w3.org/2000/svg">
<path d="M15.5835 24.7915C14.9967 24.7915 14.521 25.2672 14.521 25.854C14.521 26.4408 14.9967 26.9165 15.5835 26.9165H18.4168C19.0036 26.9165 19.4793 26.4408 19.4793 25.854C19.4793 25.2672 19.0036 24.7915 18.4168 24.7915H15.5835Z" fill="white"/>
<path fill-rule="evenodd" clip-rule="evenodd" d="M11.3335 2.8335C9.57309 2.8335 8.146 4.26059 8.146 6.021V27.9793C8.146 29.7397 9.57309 31.1668 11.3335 31.1668H22.6668C24.4272 31.1668 25.8543 29.7397 25.8543 27.9793V6.021C25.8543 4.26059 24.4272 2.8335 22.6668 2.8335H11.3335ZM10.271 6.021C10.271 5.4342 10.7467 4.9585 11.3335 4.9585H22.6668C23.2536 4.9585 23.7293 5.4342 23.7293 6.021V27.9793C23.7293 28.5661 23.2536 29.0418 22.6668 29.0418H11.3335C10.7467 29.0418 10.271 28.5661 10.271 27.9793V6.021Z" fill="white"/>
</svg>
