<svg width="45" height="55" viewBox="0 0 45 55" fill="none" xmlns="http://www.w3.org/2000/svg">
<path fill-rule="evenodd" clip-rule="evenodd" d="M0 2.04727C0 0.916595 0.957502 0 2.13864 0H36.3569C40.6879 0 44.1986 3.36069 44.1986 7.50666V47.0872C44.1986 51.2332 40.6879 54.5939 36.3569 54.5939H2.13864C0.957502 54.5939 0 53.6773 0 52.5466V2.04727ZM4.27728 4.09454V50.4994H36.3569C38.3256 50.4994 39.9213 48.9718 39.9213 47.0872V7.50666C39.9213 5.62205 38.3256 4.09454 36.3569 4.09454H4.27728Z" fill="#64748B"/>
<path fill-rule="evenodd" clip-rule="evenodd" d="M21.4258 2.04658C21.4258 0.916284 22.385 0 23.5683 0H33.5669C34.7502 0 35.7095 0.916284 35.7095 2.04658V17.0548C35.7095 17.8541 35.2224 18.5802 34.4622 18.9141C33.702 19.2481 32.8079 19.1288 32.1726 18.6087L28.5676 15.6572L24.9627 18.6087C24.3274 19.1288 23.4332 19.2481 22.6731 18.9141C21.9129 18.5802 21.4258 17.8541 21.4258 17.0548V2.04658ZM25.7109 4.09315V12.6051L27.1733 11.4078C27.9756 10.7508 29.1596 10.7508 29.962 11.4078L31.4244 12.6051V4.09315H25.7109Z" fill="#64748B"/>
</svg>
