<svg width="57" height="50" viewBox="0 0 57 50" fill="none" xmlns="http://www.w3.org/2000/svg">
<path fill-rule="evenodd" clip-rule="evenodd" d="M10.147 2.33877C10.147 1.2267 11.0889 0.325195 12.2507 0.325195H44.1226C45.2845 0.325195 46.2263 1.2267 46.2263 2.33877V19.5045C46.2263 26.9421 41.1898 33.2635 34.2031 35.5084C34.2603 35.6914 34.2911 35.8854 34.2911 36.0862V40.4691H42.0434C43.2053 40.4691 44.1471 41.3706 44.1471 42.4827V47.9864C44.1471 49.0985 43.2053 50 42.0434 50H14.3299C13.1681 50 12.2262 49.0985 12.2262 47.9864V42.4827C12.2262 41.3706 13.1681 40.4691 14.3299 40.4691H22.1314V36.0862C22.1314 35.8906 22.1605 35.7014 22.2149 35.5226C15.2069 33.2907 10.147 26.9605 10.147 19.5045V2.33877ZM26.3389 36.3259V42.4827C26.3389 43.5947 25.397 44.4962 24.2351 44.4962H16.4337V45.9728H39.9396V44.4962H32.1873C31.0254 44.4962 30.0835 43.5947 30.0835 42.4827V36.322C29.5923 36.3614 29.0953 36.3815 28.5934 36.3815H27.7799C27.2948 36.3815 26.8142 36.3627 26.3389 36.3259ZM14.3545 4.35234V19.5045C14.3545 26.5974 20.3722 32.3544 27.7799 32.3544H28.5934C36.004 32.3544 42.0188 26.5946 42.0188 19.5045V4.35234H14.3545Z" fill="#64748B"/>
<path fill-rule="evenodd" clip-rule="evenodd" d="M0.165883 7.9754C0.315946 6.99316 1.20732 6.26416 2.25826 6.26416H11.9159C13.0835 6.26416 14.03 7.15793 14.03 8.26044C14.03 9.36296 13.0835 10.2567 11.9159 10.2567H4.23203C4.22972 10.3719 4.22835 10.4917 4.22812 10.6158C4.22574 11.9289 4.35277 13.6696 4.84827 15.446C5.34382 17.2225 6.18642 18.9595 7.56084 20.3575C8.91077 21.7306 10.8658 22.8729 13.7875 23.3594C14.9373 23.5508 15.7051 24.5862 15.5023 25.672C15.2996 26.7578 14.2031 27.4827 13.0533 27.2913C9.26117 26.6599 6.46401 25.1101 4.4622 23.0739C2.48486 21.0626 1.37616 18.6731 0.759638 16.4629C0.143057 14.2525 -0.00275189 12.1462 3.9051e-05 10.609C0.00144339 9.83551 0.0405419 9.19351 0.0802228 8.73825C0.100089 8.51031 0.120179 8.32832 0.135942 8.19909C0.143827 8.13445 0.150639 8.08293 0.155814 8.04539C0.158402 8.02661 0.160582 8.01132 0.162283 7.99962C0.163134 7.99378 0.163865 7.98882 0.164468 7.98478L0.165275 7.9794L0.165604 7.97723C0.165747 7.97628 0.165883 7.9754 2.25826 8.26044L0.165883 7.9754ZM42.3441 8.26044C42.3441 7.15793 43.2905 6.26416 44.4581 6.26416H54.1158C55.1667 6.26416 56.0581 6.99316 56.2081 7.9754L54.1158 8.26044C56.2081 7.97539 56.2083 7.97628 56.2084 7.97723L56.2087 7.9794L56.2096 7.98478C56.2102 7.98882 56.2109 7.99377 56.2117 7.99962C56.2134 8.01132 56.2156 8.02661 56.2182 8.04539C56.2234 8.08293 56.2302 8.13445 56.2381 8.19909C56.2538 8.32832 56.2739 8.51031 56.2938 8.73824C56.3335 9.19351 56.3726 9.83551 56.374 10.609C56.3768 12.1462 56.231 14.2525 55.6144 16.4629C54.9979 18.6731 53.8892 21.0626 51.9118 23.0739C49.91 25.1101 47.1129 26.6599 43.3207 27.2913C42.1709 27.4827 41.0744 26.7578 40.8717 25.672C40.6689 24.5862 41.4367 23.5508 42.5865 23.3594C45.5082 22.8729 47.4633 21.7306 48.8132 20.3575C50.1876 18.9595 51.0302 17.2225 51.5258 15.446C52.0212 13.6696 52.1483 11.9289 52.1459 10.6158C52.1457 10.4917 52.1443 10.3719 52.142 10.2567H44.4581C43.2905 10.2567 42.3441 9.36296 42.3441 8.26044Z" fill="#64748B"/>
<path fill-rule="evenodd" clip-rule="evenodd" d="M27.905 8.42432C28.4229 8.42432 28.8959 8.71829 29.1252 9.18265L31.4382 13.8679L36.6054 14.6188C37.118 14.6932 37.5438 15.0523 37.7039 15.5449C37.8639 16.0374 37.7303 16.5782 37.3593 16.9396L33.6194 20.5832L34.5021 25.7319C34.5896 26.2424 34.3796 26.7583 33.9605 27.0627C33.5413 27.367 32.9857 27.407 32.5272 27.1658L27.905 24.7339L23.2828 27.1658C22.8244 27.407 22.2687 27.367 21.8496 27.0627C21.4304 26.7583 21.2204 26.2424 21.3079 25.7319L22.1906 20.5832L18.4507 16.9396C18.0797 16.5782 17.9461 16.0374 18.1061 15.5449C18.2662 15.0523 18.692 14.6932 19.2046 14.6188L24.3718 13.8679L26.6848 9.18265C26.9141 8.71829 27.3871 8.42432 27.905 8.42432ZM27.905 12.8587L26.4956 15.7136C26.2973 16.1151 25.9142 16.3934 25.4711 16.4578L22.3251 16.915L24.6023 19.1336C24.9231 19.4461 25.0695 19.8965 24.9939 20.3379L24.4563 23.4735L27.2713 21.9924C27.668 21.7837 28.142 21.7837 28.5387 21.9924L31.3537 23.4735L30.8162 20.3379C30.7405 19.8965 30.8869 19.4461 31.2077 19.1336L33.4849 16.915L30.3389 16.4578C29.8958 16.3934 29.5127 16.1151 29.3145 15.7136L27.905 12.8587Z" fill="#64748B"/>
</svg>
