<svg width="34" height="34" viewBox="0 0 34 34" fill="none" xmlns="http://www.w3.org/2000/svg">
<path d="M27.0214 6.93317C24.3795 4.29116 20.7809 2.8335 17.0911 2.8335C9.34728 2.8335 3.01556 9.11967 3.01556 16.8635C3.01556 19.3688 3.65328 21.7376 4.88319 23.9241L2.87891 31.1668L10.395 29.2536C12.4448 30.3469 14.768 30.9846 17.1366 30.9846C24.8349 30.939 31.1211 24.6529 31.1211 16.8635C31.1211 13.1282 29.6635 9.62075 27.0214 6.93317ZM17.0455 28.5704C14.9958 28.5704 12.8548 27.9782 11.0783 26.885L10.6227 26.6117L6.20419 27.7504L7.4341 23.4685L7.16078 23.0131C6.02199 21.1453 5.38427 18.9588 5.38427 16.7724C5.38427 10.3496 10.5772 5.15665 17.0455 5.15665C20.1431 5.15665 23.0584 6.38655 25.2449 8.57305C27.4314 10.7595 28.6613 13.7204 28.6613 16.8635C28.7524 23.3774 23.4684 28.5704 17.0455 28.5704ZM23.4684 19.8244C23.104 19.6422 21.4185 18.7767 21.0087 18.7312C20.6898 18.5945 20.4163 18.5489 20.2342 18.9134C20.052 19.2777 19.3231 20.0066 19.1409 20.2799C18.9587 20.4621 18.7766 20.5532 18.3666 20.3255C18.0022 20.1433 16.909 19.8244 15.5423 18.5489C14.4947 17.6379 13.7658 16.4991 13.6292 16.0891C13.447 15.7247 13.5836 15.588 13.8114 15.3602C13.9936 15.178 14.1758 14.9959 14.3125 14.7226C14.4947 14.5404 14.4947 14.3581 14.6769 14.1304C14.859 13.9482 14.7225 13.6749 14.6312 13.4927C14.4947 13.3105 13.8569 11.5795 13.5381 10.8507C13.2648 10.1218 12.9459 10.2585 12.7637 10.2585C12.5815 10.2585 12.3082 10.2585 12.126 10.2585C11.9437 10.2585 11.4882 10.304 11.2149 10.714C10.896 11.0784 9.985 11.9439 9.985 13.6749C9.985 15.4058 11.2149 17.0002 11.4427 17.3191C11.6249 17.5012 13.948 21.0999 17.41 22.6486C18.2299 23.0131 18.8676 23.2407 19.4143 23.423C20.2342 23.6963 21.0087 23.6052 21.6008 23.5596C22.2841 23.5141 23.6506 22.7396 23.9695 21.8742C24.2428 21.0999 24.2428 20.3255 24.1517 20.1888C24.0606 20.0977 23.7873 19.961 23.4684 19.8244Z" fill="white"/>
</svg>
