<svg width="91" height="34" viewBox="0 0 91 34" fill="none" xmlns="http://www.w3.org/2000/svg">
<path d="M80.1909 26.2877C78.1269 26.2877 76.2909 25.8558 74.6829 24.9918C73.0989 24.1278 71.8389 22.9518 70.9029 21.4638C69.9909 19.9518 69.5349 18.2358 69.5349 16.3158C69.5349 14.3718 69.9909 12.6557 70.9029 11.1677C71.8389 9.65575 73.0989 8.47975 74.6829 7.63975C76.2909 6.77575 78.1269 6.34375 80.1909 6.34375C82.2309 6.34375 84.0549 6.77575 85.6629 7.63975C87.2709 8.47975 88.5309 9.64375 89.4429 11.1318C90.3549 12.6198 90.8109 14.3478 90.8109 16.3158C90.8109 18.2358 90.3549 19.9518 89.4429 21.4638C88.5309 22.9518 87.2709 24.1278 85.6629 24.9918C84.0549 25.8558 82.2309 26.2877 80.1909 26.2877ZM80.1909 21.6798C81.1269 21.6798 81.9669 21.4637 82.7109 21.0317C83.4549 20.5997 84.0429 19.9877 84.4749 19.1957C84.9069 18.3797 85.1229 17.4198 85.1229 16.3158C85.1229 15.1878 84.9069 14.2277 84.4749 13.4357C84.0429 12.6437 83.4549 12.0317 82.7109 11.5998C81.9669 11.1678 81.1269 10.9517 80.1909 10.9517C79.2549 10.9517 78.4149 11.1678 77.6709 11.5998C76.9269 12.0317 76.3269 12.6437 75.8709 13.4357C75.4389 14.2277 75.2229 15.1878 75.2229 16.3158C75.2229 17.4198 75.4389 18.3797 75.8709 19.1957C76.3269 19.9877 76.9269 20.5997 77.6709 21.0317C78.4149 21.4637 79.2549 21.6798 80.1909 21.6798Z" fill="white"/>
<path d="M54.8759 33.2717C53.0519 33.2717 51.2879 33.0438 49.5839 32.5878C47.9039 32.1558 46.4999 31.4958 45.3719 30.6078L47.6039 26.5758C48.4199 27.2478 49.4519 27.7758 50.6999 28.1597C51.9719 28.5678 53.2199 28.7717 54.4439 28.7717C56.4359 28.7717 57.8759 28.3277 58.7639 27.4397C59.6759 26.5517 60.1319 25.2317 60.1319 23.4797V20.5637L60.4919 15.7037L60.4199 10.8077V6.63175H65.7479V22.7598C65.7479 26.3598 64.8119 29.0117 62.9399 30.7157C61.0679 32.4197 58.3799 33.2717 54.8759 33.2717ZM54.0119 25.0637C52.2119 25.0637 50.5799 24.6798 49.1159 23.9118C47.6759 23.1198 46.5119 22.0277 45.6239 20.6357C44.7599 19.2197 44.3279 17.5757 44.3279 15.7037C44.3279 13.8077 44.7599 12.1637 45.6239 10.7717C46.5119 9.35575 47.6759 8.26375 49.1159 7.49575C50.5799 6.72775 52.2119 6.34375 54.0119 6.34375C55.6439 6.34375 57.0839 6.67975 58.3319 7.35175C59.5799 7.99975 60.5519 9.01975 61.2479 10.4117C61.9439 11.7797 62.2919 13.5437 62.2919 15.7037C62.2919 17.8397 61.9439 19.6038 61.2479 20.9958C60.5519 22.3638 59.5799 23.3837 58.3319 24.0557C57.0839 24.7277 55.6439 25.0637 54.0119 25.0637ZM55.1279 20.4557C56.1119 20.4557 56.9879 20.2637 57.7559 19.8797C58.5239 19.4717 59.1239 18.9077 59.5559 18.1877C59.9879 17.4677 60.2039 16.6397 60.2039 15.7037C60.2039 14.7437 59.9879 13.9157 59.5559 13.2197C59.1239 12.4997 58.5239 11.9477 57.7559 11.5637C56.9879 11.1557 56.1119 10.9517 55.1279 10.9517C54.1439 10.9517 53.2679 11.1557 52.4999 11.5637C51.7319 11.9477 51.1199 12.4997 50.6639 13.2197C50.2319 13.9157 50.0159 14.7437 50.0159 15.7037C50.0159 16.6397 50.2319 17.4677 50.6639 18.1877C51.1199 18.9077 51.7319 19.4717 52.4999 19.8797C53.2679 20.2637 54.1439 20.4557 55.1279 20.4557Z" fill="white"/>
<path d="M31.394 26.2877C29.33 26.2877 27.494 25.8558 25.886 24.9918C24.302 24.1278 23.042 22.9518 22.106 21.4638C21.194 19.9518 20.738 18.2358 20.738 16.3158C20.738 14.3718 21.194 12.6557 22.106 11.1677C23.042 9.65575 24.302 8.47975 25.886 7.63975C27.494 6.77575 29.33 6.34375 31.394 6.34375C33.434 6.34375 35.258 6.77575 36.866 7.63975C38.474 8.47975 39.734 9.64375 40.646 11.1318C41.558 12.6198 42.014 14.3478 42.014 16.3158C42.014 18.2358 41.558 19.9518 40.646 21.4638C39.734 22.9518 38.474 24.1278 36.866 24.9918C35.258 25.8558 33.434 26.2877 31.394 26.2877ZM31.394 21.6798C32.33 21.6798 33.17 21.4637 33.914 21.0317C34.658 20.5997 35.246 19.9877 35.678 19.1957C36.11 18.3797 36.326 17.4198 36.326 16.3158C36.326 15.1878 36.11 14.2277 35.678 13.4357C35.246 12.6437 34.658 12.0317 33.914 11.5998C33.17 11.1678 32.33 10.9517 31.394 10.9517C30.458 10.9517 29.618 11.1678 28.874 11.5998C28.13 12.0317 27.53 12.6437 27.074 13.4357C26.642 14.2277 26.426 15.1878 26.426 16.3158C26.426 17.4198 26.642 18.3797 27.074 19.1957C27.53 19.9877 28.13 20.5997 28.874 21.0317C29.618 21.4637 30.458 21.6798 31.394 21.6798Z" fill="white"/>
<path d="M0.988037 25.9998V0.799805H6.82004V21.2478H19.456V25.9998H0.988037Z" fill="white"/>
</svg>
